<mxfile host="app.diagrams.net" modified="2024-05-16T05:38:13.962Z" agent="Mozilla/5.0 (Windows NT 10.0; Win64; x64) AppleWebKit/537.36 (KHTML, like Gecko) Chrome/122.0.0.0 Safari/537.36 Edg/122.0.0.0" version="24.4.2" etag="G0RtT3KEvJz6lUsDS8hY" type="github">
  <diagram name="Page-1" id="CFUhkQfktW8i3_SpEyiI">
    <mxGraphModel>
      <root>
        <mxCell id="0" />
        <mxCell id="1" parent="0" />
      </root>
    </mxGraphModel>
  </diagram>
</mxfile>
